<?xml version="1.0" standalone="no"?>
<!DOCTYPE svg PUBLIC "-//W3C//DTD SVG 20010904//EN"
 "http://www.w3.org/TR/2001/REC-SVG-20010904/DTD/svg10.dtd">
<svg version="1.0" xmlns="http://www.w3.org/2000/svg"
 width="1024.000000pt" height="1024.000000pt" viewBox="0 0 1024.000000 1024.000000"
 preserveAspectRatio="xMidYMid meet">

<g transform="translate(0.000000,1024.000000) scale(0.100000,-0.100000)"
fill="#000000" stroke="none">
<path d="M4925 9379 c-663 -30 -1364 -241 -1946 -585 -615 -363 -1163 -912
-1523 -1527 -71 -122 -230 -443 -275 -557 -291 -734 -375 -1460 -261 -2242 73
-496 254 -1018 505 -1459 197 -345 388 -599 660 -878 253 -259 466 -433 770
-628 530 -340 1100 -546 1755 -635 144 -19 210 -22 520 -23 372 0 435 4 715
51 868 145 1659 557 2299 1199 214 214 383 420 544 660 314 470 543 1044 647
1622 48 267 59 406 59 723 0 318 -8 419 -55 700 -176 1041 -768 2047 -1577
2677 -691 539 -1570 870 -2387 898 -77 3 -174 7 -215 8 -41 2 -147 0 -235 -4z
m558 -219 c551 -54 1006 -184 1469 -422 411 -210 713 -431 1044 -762 568 -568
966 -1339 1119 -2166 28 -150 45 -300 55 -502 23 -434 -31 -885 -165 -1357
-244 -867 -803 -1644 -1560 -2169 -601 -418 -1215 -648 -1930 -723 -149 -16
-556 -16 -732 0 -983 88 -1947 559 -2592 1264 -426 468 -733 982 -904 1517
-258 807 -269 1640 -31 2431 143 475 415 991 725 1377 436 540 969 946 1585
1205 456 192 871 290 1344 317 154 9 422 4 573 -10z"/>
<path d="M5113 8774 c-20 -18 -24 -41 -48 -304 -15 -157 -31 -350 -37 -428
-13 -175 -10 -181 96 -189 106 -9 111 -3 124 159 7 73 14 171 17 218 10 145
19 157 55 76 22 -48 89 -172 147 -271 22 -38 55 -98 72 -133 34 -68 50 -78
121 -83 88 -5 100 -2 114 34 12 28 38 217 91 647 9 69 18 141 21 161 5 29 2
41 -14 57 -23 23 -112 38 -167 28 -43 -8 -43 -10 -82 -288 -15 -115 -31 -208
-35 -208 -4 0 -38 62 -76 138 -74 147 -194 358 -217 381 -8 8 -43 16 -87 19
-61 4 -77 1 -95 -14z"/>
<path d="M4606 8755 c-21 -7 -43 -18 -48 -23 -7 -7 2 -109 28 -304 34 -270 36
-297 23 -338 -24 -75 -113 -115 -196 -87 -61 20 -78 66 -123 344 -22 131 -42
252 -45 270 -3 18 -13 39 -21 48 -35 34 -186 4 -206 -41 -13 -27 -1 -107 57
-419 41 -213 71 -286 141 -339 66 -51 133 -71 234 -71 259 2 400 123 400 345
0 103 -55 529 -76 588 l-16 42 -56 0 c-31 -1 -74 -7 -96 -15z"/>
<path d="M6343 8525 c-87 -24 -144 -56 -213 -122 -110 -103 -155 -212 -154
-373 1 -151 61 -271 178 -355 82 -58 163 -85 264 -86 133 -1 229 33 328 117
126 106 194 306 159 467 -54 253 -317 418 -562 352z m240 -232 c27 -18 52 -49
71 -85 71 -140 7 -322 -140 -394 -109 -53 -229 -15 -283 91 -22 41 -26 63 -26
130 0 69 4 88 29 135 36 70 59 95 121 132 45 26 57 29 118 25 56 -4 77 -10
110 -34z"/>
<path d="M3460 8430 c-61 -22 -279 -132 -322 -162 -37 -25 -44 -58 -22 -99 9
-19 79 -172 154 -340 155 -347 178 -392 202 -397 10 -2 56 15 104 37 103 49
102 40 25 207 -28 60 -47 111 -43 115 4 3 26 11 50 18 l43 12 66 -71 c76 -82
141 -130 176 -130 30 0 136 52 172 85 32 31 27 41 -43 81 -26 15 -82 54 -124
87 l-77 59 27 51 c23 44 27 64 27 132 -1 71 -5 89 -36 155 -62 131 -131 180
-254 179 -44 0 -91 -7 -125 -19z m135 -206 c13 -9 32 -35 41 -60 19 -49 10
-85 -29 -122 -28 -26 -127 -76 -134 -68 -11 11 -83 178 -83 192 0 14 38 37 99
59 49 18 77 18 106 -1z"/>
<path d="M7173 8178 c-34 -9 -83 -60 -83 -87 0 -9 7 -27 17 -40 15 -22 15 -26
-1 -55 -9 -17 -37 -47 -62 -66 -53 -42 -62 -64 -37 -92 15 -17 26 -19 67 -14
104 12 181 69 226 168 28 63 26 101 -10 142 -37 41 -74 56 -117 44z"/>
<path d="M2744 7969 c-72 -9 -150 -54 -283 -161 -98 -79 -151 -135 -151 -160
0 -6 148 -208 390 -533 114 -153 120 -159 157 -151 26 6 291 202 356 264 74
70 102 170 73 259 -32 97 -139 186 -238 199 -44 6 -47 9 -42 30 10 40 -23 127
-67 178 -62 71 -105 87 -195 75z m19 -221 c32 -17 46 -39 47 -73 0 -24 -12
-41 -61 -87 l-62 -57 -36 52 c-57 81 -56 78 -30 99 59 47 103 78 111 78 5 0
19 -5 31 -12z m271 -294 c42 -42 36 -80 -21 -135 -55 -53 -92 -79 -110 -79
-12 0 -113 126 -113 142 0 3 32 27 72 52 86 56 131 61 172 20z"/>
<path d="M7425 7904 c-22 -8 -57 -31 -78 -52 -106 -102 -114 -246 -23 -380 18
-26 44 -65 59 -86 68 -98 -9 -195 -110 -138 -45 25 -78 69 -108 145 -15 36
-33 71 -41 78 -20 17 -101 5 -133 -19 -23 -17 -26 -26 -25 -79 1 -73 35 -141
111 -223 110 -119 269 -164 391 -110 126 56 181 190 138 335 -8 26 -40 86 -71
132 -71 104 -80 149 -40 181 34 27 61 28 100 2 29 -19 105 -125 105 -147 0
-22 31 -43 64 -43 48 0 125 29 137 51 37 70 -139 300 -266 348 -65 25 -151 27
-210 5z"/>
<path d="M4152 7335 c-60 -14 -104 -48 -94 -74 3 -9 25 -45 49 -80 54 -81 60
-115 39 -207 -38 -160 -230 -398 -464 -574 -155 -117 -149 -149 42 -204 130
-38 129 -35 44 -98 -40 -30 -93 -69 -118 -86 -25 -17 -99 -76 -165 -131 -140
-117 -209 -159 -230 -141 -8 6 -45 55 -82 108 -94 132 -355 397 -523 528 -143
112 -367 214 -470 214 -42 0 -51 -4 -69 -29 -27 -37 -26 -53 3 -99 71 -113
113 -228 191 -520 77 -291 112 -366 222 -474 37 -37 79 -75 92 -85 l23 -19
-40 -26 c-75 -50 -156 -141 -200 -225 -40 -76 -55 -123 -147 -458 -38 -140
-93 -265 -156 -357 -21 -32 -39 -69 -39 -83 0 -74 167 -62 350 26 238 114 420
268 687 584 102 120 201 215 225 215 11 0 158 -121 236 -194 l73 -69 -66 -61
c-100 -94 -97 -107 89 -306 136 -145 179 -206 217 -308 38 -101 52 -115 109
-110 87 9 270 119 384 231 l69 67 106 -34 c222 -72 383 -103 604 -118 92 -7
167 -15 167 -18 0 -3 -25 -28 -56 -55 -51 -46 -144 -170 -144 -192 0 -14 -93
-165 -135 -220 -41 -54 -43 -75 -10 -108 18 -19 35 -25 66 -25 88 0 274 73
409 161 126 81 183 139 324 332 37 50 45 40 12 -15 -36 -63 -87 -205 -84 -239
1 -17 10 -37 19 -45 15 -14 21 -14 54 0 76 32 205 200 262 341 19 46 40 83 50
87 10 3 77 18 148 33 420 87 847 290 1197 572 175 141 258 240 258 308 0 41
-57 95 -108 102 -23 3 -42 10 -42 14 0 5 4 9 9 9 20 0 169 121 194 157 46 67
31 128 -66 259 -213 289 -610 625 -929 785 -329 165 -558 237 -931 293 -103
16 -180 33 -204 45 -21 11 -68 53 -106 95 -209 233 -522 402 -902 486 -216 48
-347 59 -443 35z m365 -240 c201 -76 341 -199 390 -344 37 -109 -2 -110 -87 0
-73 94 -206 221 -307 293 -45 33 -80 63 -77 68 7 11 4 11 81 -17z m591 -199
c36 -19 172 -177 172 -200 0 -27 -69 33 -94 82 -8 16 -35 47 -59 69 -67 62
-73 77 -19 49z m-722 -74 c51 -28 112 -82 148 -131 36 -50 56 -121 34 -121
-16 0 -207 197 -231 239 -17 30 -17 31 0 31 10 -1 32 -9 49 -18z m-197 -257
c52 -26 104 -105 70 -105 -12 0 -116 67 -125 81 -4 7 14 37 24 39 2 0 16 -7
31 -15z m1487 -85 c526 -42 1022 -257 1479 -640 156 -132 365 -362 365 -403 0
-17 -9 -25 -169 -144 -103 -76 -191 -174 -191 -212 0 -10 13 -29 28 -44 29
-28 142 -87 167 -87 22 0 19 -8 -16 -38 -101 -87 -294 -210 -454 -289 -95 -48
-265 -113 -295 -113 -30 0 -166 71 -235 123 -85 64 -185 169 -244 256 -209
306 -181 742 71 1096 77 107 81 117 62 144 -23 33 -63 26 -125 -19 -194 -144
-349 -475 -349 -749 0 -133 0 -132 -94 -44 -162 153 -311 228 -551 279 -107
22 -146 26 -234 22 -115 -5 -159 -20 -187 -63 -21 -32 -13 -54 51 -138 29 -38
86 -132 125 -208 133 -256 258 -349 470 -349 125 0 304 58 398 130 29 22 54
40 56 40 3 0 10 -17 17 -37 33 -102 124 -248 205 -328 67 -65 166 -140 246
-186 43 -24 78 -47 78 -50 0 -14 -319 -79 -485 -99 -153 -19 -544 -17 -697 3
-322 43 -653 144 -930 283 -216 109 -336 190 -598 408 -162 135 -233 184 -359
251 l-76 40 -3 70 -2 70 98 52 c123 65 212 129 417 298 293 241 417 326 630
434 381 191 859 278 1331 241z m-3119 -326 c54 -42 129 -106 166 -143 77 -74
221 -240 215 -246 -2 -2 -51 27 -110 64 -126 82 -237 185 -324 301 -96 128
-87 132 53 24z m161 -506 c142 -74 257 -146 249 -155 -18 -17 -261 85 -325
136 -34 27 -81 91 -67 91 4 0 68 -32 143 -72z m2449 -269 c77 -21 120 -39 261
-113 75 -39 101 -69 35 -40 -21 9 -90 36 -153 60 -175 65 -281 114 -248 114
15 0 63 -9 105 -21z m-2177 -133 c0 -13 -419 -270 -427 -262 -19 19 94 133
170 172 93 49 257 106 257 90z m2227 -127 c30 -17 57 -29 59 -26 3 3 -7 13
-23 22 -26 15 -26 15 -3 9 43 -11 154 -56 165 -67 7 -6 -12 -8 -56 -4 -97 9
-219 58 -219 89 0 15 22 8 77 -23z m-2287 -168 c0 -18 -308 -308 -377 -355
-111 -76 -108 -52 13 94 80 97 145 150 284 232 67 39 80 44 80 29z m1015 -471
c-10 -16 -66 -42 -73 -35 -10 10 37 45 60 45 10 0 16 -5 13 -10z m189 -157
c-38 -46 -78 -77 -95 -71 -14 5 18 41 80 91 44 37 52 26 15 -20z m1446 -274
c0 -26 -212 -201 -226 -186 -5 5 75 107 84 107 4 0 34 20 67 45 62 46 75 53
75 34z"/>
<path d="M6677 5795 c-93 -35 -146 -106 -154 -209 -5 -54 -2 -70 23 -120 51
-104 133 -152 247 -143 55 3 77 10 110 34 64 45 98 99 104 170 17 188 -159
330 -330 268z m174 -145 c13 -7 19 -21 19 -43 0 -38 -15 -57 -46 -57 -48 0
-70 55 -37 92 18 20 36 23 64 8z"/>
<path d="M7877 6515 c-181 -64 -139 -320 53 -320 154 0 227 183 114 286 -29
26 -83 49 -113 49 -9 -1 -33 -7 -54 -15z"/>
<path d="M8126 5936 c-155 -57 -171 -263 -27 -338 90 -47 166 -34 233 40 79
88 56 223 -48 284 -43 24 -112 30 -158 14z"/>
<path d="M7975 5101 c-45 -27 -68 -67 -67 -118 3 -111 115 -176 218 -127 139
66 87 264 -70 264 -32 0 -62 -7 -81 -19z"/>
<path d="M3075 4410 c-13 -14 -16 -29 -11 -57 23 -149 24 -140 -45 -277 -60
-121 -63 -129 -67 -214 -5 -105 10 -167 70 -286 54 -107 78 -179 78 -234 0
-40 -37 -222 -45 -222 -2 0 -14 19 -28 43 -14 24 -58 81 -97 128 -40 46 -79
99 -87 118 -9 21 -15 74 -16 150 -2 110 -4 119 -36 184 -72 142 -236 234 -280
156 -13 -24 -12 -30 13 -75 68 -123 69 -129 75 -294 7 -179 12 -194 112 -325
77 -102 94 -132 80 -149 -8 -9 -68 -15 -214 -20 -217 -8 -241 -14 -253 -62 -9
-35 9 -70 48 -94 32 -19 51 -20 743 -20 751 0 773 -1 949 -49 172 -47 359 -47
541 0 103 26 256 35 335 20 134 -27 366 -120 364 -146 0 -5 -23 -19 -50 -29
-43 -17 -79 -19 -289 -20 -234 -2 -243 -3 -380 -35 -129 -30 -149 -33 -255
-28 -73 4 -153 15 -220 32 -62 15 -150 28 -215 32 -109 6 -110 6 -143 -22 -31
-26 -42 -65 -24 -91 22 -33 255 -101 462 -134 114 -18 314 -12 436 12 96 19
145 21 414 22 l305 1 90 34 c202 74 220 75 391 29 111 -30 130 -32 284 -33
137 0 173 3 213 18 57 22 71 43 56 85 -14 40 -42 50 -164 57 -146 10 -325 55
-325 82 0 5 26 19 59 32 141 56 248 63 463 31 233 -35 335 -24 567 62 l104 38
369 0 c392 0 423 3 447 48 15 28 14 74 -2 96 -19 26 -78 35 -214 36 l-121 0
10 38 c28 103 136 338 282 617 31 60 36 75 27 98 -14 37 -54 45 -99 21 -54
-29 -155 -165 -222 -298 l-60 -119 0 74 c0 207 58 501 136 692 38 93 44 117
37 142 -8 28 -12 30 -53 29 -39 -1 -49 -6 -90 -51 -95 -103 -167 -282 -203
-505 -12 -76 -24 -138 -28 -138 -3 0 -12 19 -18 43 -35 115 -133 254 -214 301
-84 49 -109 29 -77 -62 84 -236 110 -347 110 -471 l0 -76 -44 91 c-82 171
-178 286 -297 357 -78 46 -103 47 -124 7 -19 -36 -15 -44 58 -141 59 -78 105
-167 145 -279 30 -86 49 -180 36 -180 -28 0 -164 46 -164 55 0 7 -16 44 -35
83 -69 138 -208 230 -359 239 -195 12 -374 -71 -487 -223 -38 -52 -41 -54 -87
-54 -71 0 -167 -26 -242 -66 -80 -42 -200 -149 -236 -210 -32 -54 -45 -55
-201 -18 -149 35 -241 41 -323 19 -153 -41 -195 -47 -295 -42 -55 3 -118 11
-139 17 l-39 12 39 23 c21 12 86 37 144 55 92 29 111 39 153 80 36 37 47 54
47 79 0 50 -30 58 -148 38 -53 -9 -122 -19 -152 -22 -73 -6 -163 -52 -236
-120 -32 -30 -62 -54 -67 -55 -13 0 5 83 33 150 14 36 57 109 93 163 37 54 67
108 67 122 0 26 -33 55 -63 55 -67 0 -243 -161 -295 -270 -28 -60 -52 -156
-67 -272 -6 -46 -7 -48 -38 -47 -18 0 -63 6 -102 12 -90 16 -92 27 -32 150 89
180 97 291 36 467 -29 86 -33 107 -33 212 -1 75 -5 121 -13 129 -32 32 -110
-31 -158 -128 -38 -77 -42 -156 -15 -278 33 -149 35 -185 15 -246 -31 -96
-142 -265 -161 -247 -4 4 2 40 12 80 12 46 19 108 19 170 l0 96 -79 155 -79
155 5 78 c4 61 12 95 38 149 83 180 72 276 -47 403 -53 56 -79 64 -108 32z
m3249 -975 c94 -15 186 -92 186 -155 0 -24 -8 -29 -94 -58 -106 -36 -166 -40
-247 -16 -157 46 -189 119 -79 186 49 30 143 58 175 53 11 -2 38 -7 59 -10z
m-420 -275 c72 -27 146 -78 165 -112 15 -25 14 -29 -8 -52 -48 -50 -243 -93
-376 -82 -126 10 -235 59 -235 106 0 48 121 137 218 159 58 13 174 4 236 -19z
m900 -66 c53 -18 86 -56 70 -81 -5 -9 -32 -24 -59 -35 -93 -37 -305 -14 -368
40 -24 21 -9 35 69 67 73 30 212 35 288 9z"/>
<path d="M2930 2653 c-36 -25 -134 -93 -218 -151 -84 -58 -155 -110 -159 -115
-4 -6 15 -30 41 -53 51 -47 65 -47 127 -3 l28 20 65 -53 c36 -29 66 -55 66
-59 0 -4 -7 -23 -15 -42 -24 -58 -19 -72 32 -106 74 -49 82 -44 115 84 16 61
49 184 74 273 l46 164 -24 25 c-22 24 -88 63 -105 63 -4 -1 -37 -21 -73 -47z
m40 -178 c-10 -33 -23 -73 -29 -88 l-11 -28 -40 33 c-22 18 -40 35 -40 38 0 3
22 20 50 39 27 18 57 42 66 52 10 11 19 18 20 16 2 -2 -5 -30 -16 -62z"/>
<path d="M7257 2686 c-62 -23 -116 -64 -148 -114 -27 -41 -30 -54 -27 -105 5
-64 25 -98 78 -134 47 -32 99 -29 198 12 86 35 107 36 117 4 14 -42 -23 -75
-119 -109 -69 -24 -71 -26 -74 -61 -12 -137 247 -60 323 96 60 126 -20 261
-150 252 -29 -2 -80 -17 -122 -36 -82 -38 -127 -37 -121 2 2 16 23 32 73 59
80 42 108 71 99 102 -13 46 -56 57 -127 32z"/>
<path d="M6885 2421 c-68 -31 -69 -32 -62 -211 4 -88 5 -160 2 -160 -3 0 -62
43 -132 95 -103 77 -135 95 -162 95 -35 0 -121 -43 -121 -61 0 -19 244 -481
257 -486 7 -3 34 5 60 18 37 18 47 29 45 44 -2 11 -34 74 -72 140 -37 66 -66
121 -65 123 1 1 42 -27 91 -64 118 -88 146 -101 180 -85 l27 12 -7 137 -7 137
20 -30 c12 -16 21 -34 21 -38 0 -7 59 -109 106 -185 l15 -22 42 21 c82 41 82
42 39 123 -177 330 -225 416 -231 416 -3 0 -24 -9 -46 -19z"/>
<path d="M3390 2402 c-62 -8 -122 -36 -163 -75 -63 -62 -90 -125 -95 -222 -3
-72 -1 -85 25 -135 42 -82 100 -121 216 -145 21 -4 27 -11 27 -30 0 -14 11
-35 26 -48 32 -28 95 -50 107 -38 4 4 10 34 12 65 3 56 5 58 50 88 87 57 125
130 125 236 0 115 -64 218 -168 271 -42 22 -124 38 -162 33z m118 -159 c44
-32 65 -69 70 -122 3 -40 0 -57 -18 -87 -23 -36 -23 -36 -39 -16 -18 22 -72
52 -94 52 -9 0 -17 -18 -23 -52 -7 -39 -14 -54 -27 -56 -29 -6 -84 44 -103 93
-14 39 -15 52 -5 87 17 54 49 97 86 114 40 19 120 12 153 -13z"/>
<path d="M3891 2173 c-22 -42 -103 -309 -108 -357 -11 -107 41 -195 143 -242
127 -59 240 -30 293 75 24 48 123 370 119 389 -2 8 -28 23 -58 34 -45 15 -56
16 -68 5 -7 -8 -35 -87 -62 -176 -53 -178 -68 -208 -106 -217 -35 -9 -92 19
-104 52 -17 43 -12 74 36 238 25 87 43 164 40 172 -6 17 -65 44 -95 44 -11 0
-25 -8 -30 -17z"/>
<path d="M6227 2134 c-26 -8 -51 -22 -54 -30 -3 -9 13 -87 36 -175 45 -171 50
-213 33 -245 -25 -46 -120 -56 -154 -16 -21 24 -33 65 -67 229 -16 79 -32 147
-35 151 -3 6 -32 5 -68 -2 -52 -9 -64 -15 -66 -32 -3 -24 49 -270 75 -349 33
-104 98 -155 199 -155 161 0 274 91 274 223 0 26 -67 310 -91 385 -12 36 -15
37 -82 16z"/>
<path d="M4563 1998 c-21 -27 -263 -508 -263 -522 0 -14 86 -46 122 -46 8 0
27 27 43 61 l29 61 81 -7 c44 -4 83 -12 86 -17 4 -6 9 -31 13 -56 3 -25 11
-51 17 -58 12 -15 124 -20 132 -6 3 4 -1 43 -9 87 -8 44 -30 172 -49 284 -19
112 -36 205 -37 206 -2 1 -24 7 -50 14 -61 14 -103 14 -115 -1z m84 -344 c-2
-3 -27 -1 -56 3 l-51 8 40 83 c22 45 40 88 41 95 1 6 8 -32 15 -87 8 -54 13
-100 11 -102z"/>
<path d="M5607 1993 c-16 -3 -31 -11 -34 -18 -2 -8 2 -67 11 -132 9 -65 23
-180 31 -256 8 -77 18 -143 21 -149 7 -11 119 -6 131 5 4 4 -8 131 -27 282
l-34 275 -35 -1 c-20 -1 -49 -4 -64 -6z"/>
<path d="M5025 1962 l-30 -7 -3 -140 c-1 -77 1 -203 5 -280 l8 -140 68 -3 67
-3 0 91 0 91 33 -3 c28 -3 37 -12 79 -82 25 -43 51 -83 56 -88 12 -12 142 -1
142 12 0 4 -25 48 -55 97 l-55 90 35 37 c60 64 71 150 29 234 -39 79 -77 96
-229 98 -66 2 -133 0 -150 -4z m252 -138 c19 -25 11 -94 -13 -111 -10 -7 -42
-13 -71 -13 l-53 0 0 76 0 76 61 -4 c46 -3 65 -9 76 -24z"/>
</g>
</svg>
